<svg xmlns="http://www.w3.org/2000/svg" viewBox="0 0 120 120"><rect width="120" height="120" style="fill:#fff"/><path d="M35.43,96.87C32.85,84.5,29.08,63,29.81,43.25c.24-6.6,1-14.51,6.71-18.51.48-.35,4.67-3.21,9.15-2,7.11,1.87,11,12.87,10.41,21.56-.75,11.65-9,12.81-10.23,24.22-.93,9,3.13,19.33,11.06,25,6.62,4.74,18.84,8.37,25,2.08,3.61-3.7,4.39-10.07,2.24-14.68-3.34-7.18-14.21-11-25-6.26" style="fill:none;stroke:#3b82f6;stroke-miterlimit:10;stroke-width:6px"/><path d="M61.61,61.72c5.73-6.36,14.78-7.3,20.42-3.07,4.07,3.05,6,8.53,5.19,14.06" style="fill:none;stroke:#2f68c4;stroke-miterlimit:10;stroke-width:6px"/><path d="M62.79,46.68a15.47,15.47,0,0,1,27.49,8.67" style="fill:none;stroke:#2f68c4;stroke-miterlimit:10;stroke-width:6px"/></svg>